<svg width="22" height="20" viewBox="0 0 22 20" fill="none" xmlns="http://www.w3.org/2000/svg">
<g clip-path="url(#clip0_1_55)">
<path d="M1.66674 8.6683H17.4801L12.6401 2.85496C12.4138 2.58267 12.3049 2.23163 12.3374 1.87906C12.3699 1.5265 12.5411 1.20128 12.8134 0.974962C13.0857 0.748644 13.4367 0.639762 13.7893 0.672268C14.1419 0.704774 14.4671 0.876007 14.6934 1.1483L21.3601 9.1483C21.4049 9.21193 21.445 9.27878 21.4801 9.3483C21.4801 9.41496 21.4801 9.45496 21.5734 9.52163C21.6338 9.67451 21.6655 9.83724 21.6667 10.0016C21.6655 10.166 21.6338 10.3288 21.5734 10.4816C21.5734 10.5483 21.5734 10.5883 21.4801 10.655C21.445 10.7245 21.4049 10.7913 21.3601 10.855L14.6934 18.855C14.5681 19.0055 14.4111 19.1265 14.2336 19.2095C14.0562 19.2924 13.8626 19.3353 13.6667 19.335C13.3552 19.3356 13.0533 19.2271 12.8134 19.0283C12.6784 18.9164 12.5668 18.7789 12.485 18.6238C12.4032 18.4686 12.3528 18.2989 12.3367 18.1243C12.3206 17.9496 12.3391 17.7735 12.3912 17.6061C12.4432 17.4386 12.5278 17.283 12.6401 17.1483L17.4801 11.335H1.66674C1.31312 11.335 0.973977 11.1945 0.723929 10.9444C0.473879 10.6944 0.333405 10.3553 0.333405 10.0016C0.333405 9.64801 0.473879 9.30887 0.723929 9.05882C0.973977 8.80877 1.31312 8.6683 1.66674 8.6683Z" fill="white"/>
</g>
<defs>
<clipPath id="clip0_1_55">
<rect width="22" height="20" fill="white"/>
</clipPath>
</defs>
</svg>
