<?xml version="1.0" encoding="UTF-8"?>
<svg width="236px" height="60px" viewBox="0 0 236 60" version="1.1" xmlns="http://www.w3.org/2000/svg" xmlns:xlink="http://www.w3.org/1999/xlink">
    <!-- Generator: Sketch 63.1 (92452) - https://sketch.com -->
    <title>logo</title>
    <desc>Created with Sketch.</desc>
    <defs>
        <polygon id="path-1" points="0 60.419226 235.655146 60.419226 235.655146 0.636509521 0 0.636509521"></polygon>
    </defs>
    <g id="Home" stroke="none" stroke-width="1" fill="none" fill-rule="evenodd">
        <g transform="translate(-59.000000, -23.000000)" id="logo">
            <g transform="translate(59.000000, 22.000000)">
                <g id="Group-24">
                    <path d="M98.9029859,30.5489443 C96.7588723,30.5489443 95.2815343,29.9925253 93.8041963,28.5227925 L96.366983,25.9950207 C97.0069748,26.6343404 97.6215925,27.1050484 98.9029859,27.1050484 C100.797587,27.1050484 102.022594,25.9950207 102.022594,23.7187615 L102.022594,10.6120048 L105.896377,10.6120048 L105.896377,23.8845631 C105.896377,28.243178 102.579415,30.5489443 98.9029859,30.5489443" id="Fill-1" fill="#005890"></path>
                    <polygon id="Fill-3" fill="#005890" points="121.861072 30.3815971 116.762282 21.3861579 114.199496 24.4394364 114.199496 30.3815971 110.327122 30.3815971 110.327122 10.6118643 114.199496 10.6118643 114.199496 19.2194963 121.192887 10.6118643 125.899787 10.6118643 119.326479 18.4691738 126.374847 30.3815971"></polygon>
                    <polygon id="Fill-5" fill="#005890" points="149.970529 30.3815971 149.970529 18.856981 146.181326 26.3573956 143.564972 26.3573956 139.747575 18.856981 139.747575 30.3815971 135.875202 30.3815971 135.875202 10.6118643 139.691188 10.6118643 144.871739 21.3004469 150.028325 10.6118643 153.844312 10.6118643 153.844312 30.3815971"></polygon>
                    <path d="M167.693369,14.9419556 C167.136548,14.304041 166.272418,13.8867268 165.213753,13.8867268 C164.155088,13.8867268 163.262765,14.304041 162.705943,14.9419556 C161.953178,15.776584 161.758643,16.691303 161.758643,20.4963091 C161.758643,24.2999102 161.953178,25.2160342 162.705943,26.0492575 C163.262765,26.6885772 164.155088,27.1044863 165.213753,27.1044863 C166.272418,27.1044863 167.136548,26.6885772 167.693369,26.0492575 C168.444725,25.2160342 168.668863,24.2999102 168.668863,20.4963091 C168.668863,16.691303 168.444725,15.776584 167.693369,14.9419556 M170.562055,28.3817207 C169.170707,29.772768 167.469231,30.5483822 165.213753,30.5483822 C162.955456,30.5483822 161.230015,29.772768 159.835848,28.3817207 C157.829882,26.3836709 157.88486,23.9135081 157.88486,20.4963091 C157.88486,17.0791101 157.829882,14.6103524 159.835848,12.6108976 C161.230015,11.2226605 162.955456,10.4456411 165.213753,10.4456411 C167.469231,10.4456411 169.170707,11.2226605 170.562055,12.6108976 C172.56802,14.6103524 172.539848,17.0791101 172.539848,20.4963091 C172.539848,23.9135081 172.56802,26.3836709 170.562055,28.3817207" id="Fill-7" fill="#005890"></path>
                    <polygon id="Fill-9" fill="#005890" points="183.692601 30.3815971 180.795722 30.3815971 174.249197 10.6118643 178.259719 10.6118643 182.246276 23.4966155 186.227194 10.6118643 190.267319 10.6118643"></polygon>
                    <mask id="mask-2" fill="white">
                        <use xlink:href="#path-1"></use>
                    </mask>
                    <g id="Clip-12"></g>
                    <polygon id="Fill-11" fill="#005890" mask="url(#mask-2)" points="193.212691 30.3824401 197.085065 30.3824401 197.085065 10.6113022 193.212691 10.6113022"></polygon>
                    <polygon id="Fill-13" fill="#005890" mask="url(#mask-2)" points="213.370038 30.3815971 205.512517 18.2457632 205.512517 30.3815971 201.641553 30.3815971 201.641553 10.6118643 205.096663 10.6118643 212.951365 22.718191 212.951365 10.6118643 216.825148 10.6118643 216.825148 30.3815971"></polygon>
                    <path d="M233.760826,28.3000845 C232.228511,29.8541232 230.390297,30.5496468 228.160193,30.5496468 C226.042863,30.5496468 224.262445,29.8274263 222.811891,28.3829853 C221.949171,27.52166 221.419133,26.52123 221.197815,25.4097973 C220.973676,24.2997697 220.862312,22.6614251 220.862312,20.4961686 C220.862312,18.3295071 220.973676,16.6911625 221.197815,15.5825399 C221.419133,14.4430052 221.949171,13.4692721 222.811891,12.6107571 C224.262445,11.166316 226.042863,10.4440955 228.160193,10.4440955 C232.673968,10.4440955 235.098607,13.3329776 235.627234,16.7754684 L231.728077,16.7754684 C231.253017,14.8603194 230.084397,13.8879914 228.160193,13.8879914 C227.131131,13.8879914 226.296604,14.2491017 225.680577,14.9432202 C224.957414,15.8593443 224.736095,16.5815648 224.736095,20.4961686 C224.736095,24.3854807 224.902437,25.1625 225.680577,26.0786241 C226.268411,26.7727426 227.101528,27.1043458 228.160193,27.1043458 C229.304848,27.1043458 230.222545,26.7446407 230.918924,25.9929131 C231.503939,25.3283016 231.808428,24.4402795 231.808428,23.3555436 L231.808428,22.6080313 L228.160193,22.6080313 L228.160193,19.3847359 L235.655428,19.3847359 L235.655428,22.2736179 C235.655428,25.1625 235.1268,26.8556434 233.760826,28.3000845" id="Fill-14" fill="#005890" mask="url(#mask-2)"></path>
                    <path d="M97.8813954,45.9885857 C96.3025609,45.9885857 95.1663639,45.621855 94.1626763,44.605969 L95.2255702,43.5605759 C95.9924327,44.3249493 96.8340079,44.5624109 97.9109985,44.5624109 C99.282611,44.5624109 100.079077,43.9708646 100.079077,42.9591938 C100.079077,42.503942 99.947977,42.1203501 99.6660422,41.8702426 C99.4010236,41.6201351 99.136005,41.517563 98.5157485,41.4290418 L97.2766454,41.2519994 C96.4209735,41.1353762 95.7415108,40.8403056 95.2847765,40.4145608 C94.768836,39.9298019 94.5165044,39.2680006 94.5165044,38.415106 C94.5165044,36.5912884 95.844417,35.342156 98.0280015,35.342156 C99.4151203,35.342156 100.390615,35.6948357 101.289986,36.5322743 L100.272202,37.529894 C99.6223424,36.914461 98.8695766,36.7233676 97.9857112,36.7233676 C96.7451984,36.7233676 96.0671454,37.4301321 96.0671454,38.3532816 C96.0671454,38.7382786 96.1841483,39.0769072 96.4646734,39.3270147 C96.7311017,39.5616662 97.1582328,39.7387085 97.6459799,39.8117736 L98.8399735,39.9874109 C99.814058,40.1363514 100.361011,40.3695977 100.803649,40.7672405 C101.377386,41.2674555 101.657911,42.0177779 101.657911,42.9142307 C101.657911,44.8406204 100.079077,45.9885857 97.8813954,45.9885857" id="Fill-15" fill="#005890" mask="url(#mask-2)"></path>
                    <polygon id="Fill-16" fill="#005890" mask="url(#mask-2)" points="107.731349 45.900767 107.731349 35.4299747 114.445625 35.4299747 114.445625 36.8561494 109.32428 36.8561494 109.32428 39.9136433 113.692859 39.9136433 113.692859 41.325767 109.32428 41.325767 109.32428 44.4717821 114.445625 44.4717821 114.445625 45.900767"></polygon>
                    <path d="M124.494624,36.8554469 L122.133421,36.8554469 L122.133421,40.1363514 L124.494624,40.1363514 C125.556109,40.1363514 126.279271,39.530754 126.279271,38.5022221 C126.279271,37.472285 125.556109,36.8554469 124.494624,36.8554469 L124.494624,36.8554469 Z M126.338478,45.9000645 L124.12529,41.4880559 L122.133421,41.4880559 L122.133421,45.9000645 L120.53908,45.9000645 L120.53908,35.427867 L124.611627,35.427867 C126.604906,35.427867 127.873612,36.7093166 127.873612,38.486766 C127.873612,39.9874109 126.957324,40.9442829 125.777427,41.2688606 L128.197837,45.9000645 L126.338478,45.9000645 Z" id="Fill-17" fill="#005890" mask="url(#mask-2)"></path>
                    <polygon id="Fill-18" fill="#005890" mask="url(#mask-2)" points="137.72131 45.900767 136.483617 45.900767 133.031326 35.4299747 134.682054 35.4299747 137.102464 43.0484175 139.521464 35.4299747 141.204614 35.4299747"></polygon>
                    <polygon id="Fill-19" fill="#005890" mask="url(#mask-2)" points="146.931695 45.8989404 148.523217 45.8989404 148.523217 35.428148 146.931695 35.428148"></polygon>
                    <path d="M158.659898,45.9885857 C157.568811,45.9885857 156.625739,45.592348 155.901167,44.8715326 C154.869286,43.8415955 154.881965,42.6795792 154.881965,40.6646683 C154.881965,38.6497574 154.869286,37.4877411 155.901167,36.4578041 C156.625739,35.7383937 157.568811,35.342156 158.659898,35.342156 C160.59397,35.342156 162.038886,36.4732601 162.40822,38.5626413 L160.785686,38.5626413 C160.533354,37.5031972 159.824289,36.7669257 158.659898,36.7669257 C158.042461,36.7669257 157.480001,37.0015771 157.110667,37.400625 C156.593317,37.958449 156.476314,38.5626413 156.476314,40.6646683 C156.476314,42.7666953 156.593317,43.3708876 157.110667,43.9287116 C157.480001,44.3249493 158.042461,44.5624109 158.659898,44.5624109 C159.824289,44.5624109 160.548861,43.8261394 160.801192,42.7666953 L162.40822,42.7666953 C162.052983,44.8560765 160.564367,45.9885857 158.659898,45.9885857" id="Fill-20" fill="#005890" mask="url(#mask-2)"></path>
                    <polygon id="Fill-21" fill="#005890" mask="url(#mask-2)" points="168.480813 45.900767 168.480813 35.4299747 175.195088 35.4299747 175.195088 36.8561494 170.075153 36.8561494 170.075153 39.9136433 174.443732 39.9136433 174.443732 41.325767 170.075153 41.325767 170.075153 44.4717821 175.195088 44.4717821 175.195088 45.900767"></polygon>
                    <path d="M184.543339,45.9885857 C182.964505,45.9885857 181.829717,45.621855 180.82603,44.605969 L181.886104,43.5605759 C182.654376,44.3249493 183.495952,44.5624109 184.572942,44.5624109 C185.944555,44.5624109 186.74243,43.9708646 186.74243,42.9591938 C186.74243,42.503942 186.609921,42.1203501 186.330805,41.8702426 C186.062967,41.6201351 185.799358,41.517563 185.177692,41.4290418 L183.938589,41.2519994 C183.082917,41.1353762 182.403454,40.8403056 181.94672,40.4145608 C181.42937,39.9298019 181.179858,39.2680006 181.179858,38.415106 C181.179858,36.5912884 182.50918,35.342156 184.691355,35.342156 C186.077064,35.342156 187.051149,35.6948357 187.95052,36.5322743 L186.934146,37.529894 C186.284286,36.914461 185.53152,36.7233676 184.646245,36.7233676 C183.408552,36.7233676 182.729089,37.4301321 182.729089,38.3532816 C182.729089,38.7382786 182.846092,39.0769072 183.126617,39.3270147 C183.394455,39.5616662 183.820177,39.7387085 184.306514,39.8117736 L185.503327,39.9874109 C186.477411,40.1363514 187.024365,40.3695977 187.465593,40.7672405 C188.040739,41.2674555 188.321265,42.0177779 188.321265,42.9142307 C188.321265,44.8406204 186.74243,45.9885857 184.543339,45.9885857" id="Fill-22" fill="#005890" mask="url(#mask-2)"></path>
                    <path d="M2.02499621,57.7493988 L2.46481439,57.7493988 C2.78481031,57.7493988 3.04137092,57.7100561 3.04137092,57.3981242 C3.04137092,57.1030536 2.78481031,57.0496599 2.46481439,57.0496599 L2.02499621,57.0496599 L2.02499621,57.7493988 Z M1.48650087,56.5930029 L2.55644318,56.5930029 C3.21758013,56.5930029 3.57704691,56.8220339 3.57704691,57.4037446 C3.57704691,57.9053647 3.27114773,58.1484467 2.8764391,58.1863844 L3.59537267,59.3568312 L3.02163549,59.3568312 L2.31397931,58.2074608 L2.02499621,58.2074608 L2.02499621,59.3568312 L1.48650087,59.3568312 L1.48650087,56.5930029 Z M2.45071766,59.9244909 C3.48541812,59.9244909 4.28611276,59.0828371 4.28611276,57.9784298 C4.28611276,56.8740226 3.48541812,56.0309636 2.45071766,56.0309636 C1.40333013,56.0309636 0.616732226,56.8740226 0.616732226,57.9784298 C0.616732226,59.0828371 1.40333013,59.9244909 2.45071766,59.9244909 L2.45071766,59.9244909 Z M2.45071766,55.536369 C3.75466579,55.536369 4.90214015,56.5213429 4.90214015,57.9784298 C4.90214015,59.4355167 3.75466579,60.4176804 2.45071766,60.4176804 C1.1481792,60.4176804 -0.00070483683,59.4355167 -0.00070483683,57.9784298 C-0.00070483683,56.5213429 1.1481792,55.536369 2.45071766,55.536369 L2.45071766,55.536369 Z" id="Fill-23" fill="#005890" mask="url(#mask-2)"></path>
                </g>
                <polygon id="Fill-25" fill="#B71234" points="37.5171318 1 21 17.5161078 21 61 64.4828682 61 81 44.4838922 81 1"></polygon>
                <polygon id="Fill-26" fill="#005890" points="22.489185 1 6 17.5143059 6 61 16.510815 61 16.510815 17.5143059 33 1"></polygon>
                <polygon id="Fill-27" fill="#FFFFFF" points="58.0724706 19 65 19 55.7487059 29.9170885 61.1021176 43 53.8541176 43 49.2856471 30.2340723 49.2277647 30.2340723 46.8432941 43 41 43 45.4851765 19 51.3270588 19 49.3562353 29.5358701 49.4197647 29.5358701"></polygon>
                <path d="M34.0890632,19 L33.3567144,23.4664126 L37.2330411,23.4664126 C36.2958006,28.6663245 34.8214121,36.7918829 34.4628519,38.6430293 C33.9132441,41.4253162 31.8712506,41.1385973 29.8707891,40.7753272 C29.5025381,42.7990617 29.1952007,44.4734445 29,45.4867035 C31.1582833,46.0406556 38.7226581,47.5633279 40.1416705,40.1545668 C40.8698662,36.4856782 43.9667743,19.190682 44,19 L34.0890632,19 Z" id="Fill-28" fill="#FFFFFF"></path>
            </g>
        </g>
    </g>
</svg>