<?xml version="1.0" encoding="UTF-8"?>
<svg xmlns="http://www.w3.org/2000/svg" width="123" height="63" viewBox="0 0 123 63" fill="none">
  <path d="M108.809 63H0V14.3506C0 6.42073 6.34944 0 14.1913 0H108.809C116.651 0 123 6.42073 123 14.3506V48.6768C123 56.6067 116.651 63 108.809 63Z" fill="#D71A64"></path>
  <path d="M20.6762 43.052L22.5756 39.5673C25.072 41.5703 27.4598 42.5307 29.7119 42.5307C31.7742 42.5307 33.1309 41.7624 33.1309 40.2807C33.1309 38.7441 31.53 38.4697 28.7622 37.6191C24.1494 36.1374 21.8159 34.9575 21.8159 31.4728C21.8159 27.3295 25.1534 24.6953 30.2275 24.6953C33.158 24.6953 35.8714 25.5734 38.0422 27.6587L35.8986 31.0612C33.7821 29.4148 31.9641 28.6465 29.9833 28.6465C28.3281 28.6465 26.7814 29.1679 26.7814 30.8142C26.7814 32.2959 28.0025 32.7349 30.5531 33.4758C35.5187 34.9575 38.2593 36.0551 38.2593 39.8691C38.2593 44.0398 34.976 46.5368 29.929 46.5368C26.4016 46.5642 22.9826 45.3569 20.6762 43.052Z" fill="white"></path>
  <path d="M55.8698 46.1525V34.3537C55.8698 31.0611 54.4045 29.6342 51.2298 29.6342C47.8652 29.6342 47.1868 32.0489 47.1868 33.8873V46.18H42.8724C42.3298 46.18 41.8685 45.7409 41.8685 45.1647V16.8477H47.1868L47.2682 25.6007C48.2722 24.997 49.846 24.3934 52.2338 24.3934C58.1762 24.3934 61.1881 28.8934 61.1881 33.0092V46.1251H55.8698V46.1525Z" fill="white"></path>
  <path d="M66.8316 46.1532H71.146V26.2051H65.8276V45.138C65.8276 45.7142 66.2889 46.1532 66.8316 46.1532Z" fill="white"></path>
  <path d="M75.8404 24.97C75.8404 19.7566 78.5267 16.4639 82.7868 16.4639C84.442 16.4639 86.2328 16.9029 87.9152 17.6986L86.8298 21.7596C86.0429 21.3206 84.849 20.9913 83.9264 20.9913C82.1084 20.9913 81.1587 22.3084 81.1587 24.7505V26.2322H86.2328V30.3206H81.1587V46.1255H76.8444C76.3017 46.1255 75.8404 45.6864 75.8404 45.1102V24.97Z" fill="white"></path>
  <path d="M91.0356 18.3018H96.354V26.3414H100.723V30.4572H96.354V39.5396C96.3811 41.0213 97.2223 41.5975 98.3348 41.5975C99.4473 41.5975 100.587 41.1036 101.238 40.8292L102.296 45.0822C100.858 45.7133 98.6875 46.5365 96.4354 46.5365C93.5049 46.5365 91.0356 45.0822 91.0356 41.3505V18.3018Z" fill="white"></path>
  <path d="M67.0215 24.6954H65.8548L65.8276 20.7991C65.8276 19.9759 66.506 19.3174 67.32 19.3174H70.0606C70.7118 19.3174 71.2274 19.8113 71.2274 20.4424C71.2274 20.4698 71.2274 20.4973 71.2274 20.5247C71.2545 22.8021 69.3551 24.668 67.0215 24.6954Z" fill="white"></path>
</svg>
